<svg width="50" height="46" viewBox="0 0 50 46" fill="none" xmlns="http://www.w3.org/2000/svg">
<path d="M39.5628 36.2835C36.8181 36.2835 34.6174 38.3018 34.6174 40.8189C34.6174 42.0218 35.1384 43.1754 36.0659 44.026C36.9933 44.8765 38.2512 45.3544 39.5628 45.3544C40.8743 45.3544 42.1322 44.8765 43.0596 44.026C43.9871 43.1754 44.5081 42.0218 44.5081 40.8189C44.5081 39.6161 43.9871 38.4625 43.0596 37.6119C42.1322 36.7613 40.8743 36.2835 39.5628 36.2835ZM0 0V4.53544H4.94534L13.847 21.7474L10.4841 27.3033C10.1132 27.9383 9.89069 28.6866 9.89069 29.4804C9.89069 30.6832 10.4117 31.8368 11.3391 32.6874C12.2666 33.5379 13.5244 34.0158 14.836 34.0158H44.5081V29.4804H15.8746C15.7106 29.4804 15.5534 29.4206 15.4374 29.3143C15.3215 29.208 15.2564 29.0638 15.2564 28.9134C15.2564 28.8 15.2811 28.7093 15.3306 28.6413L17.556 24.9449H35.9774C37.8319 24.9449 39.4639 23.9925 40.3046 22.6092L49.1567 7.93702C49.3298 7.57418 49.4534 7.18867 49.4534 6.80316C49.4534 6.20172 49.1929 5.62492 48.7292 5.19964C48.2655 4.77436 47.6366 4.53544 46.9808 4.53544H10.41L8.08564 0M14.836 36.2835C12.0914 36.2835 9.89069 38.3018 9.89069 40.8189C9.89069 42.0218 10.4117 43.1754 11.3391 44.026C12.2666 44.8765 13.5244 45.3544 14.836 45.3544C16.1476 45.3544 17.4055 44.8765 18.3329 44.026C19.2604 43.1754 19.7814 42.0218 19.7814 40.8189C19.7814 39.6161 19.2604 38.4625 18.3329 37.6119C17.4055 36.7613 16.1476 36.2835 14.836 36.2835Z" fill="#DAD0C5"/>
</svg>
