<svg width="50" height="46" viewBox="0 0 50 46" fill="none" xmlns="http://www.w3.org/2000/svg">
<path d="M15.9536 19.2962C13.5387 17.0815 12.3312 14.4192 12.3312 11.3091C12.3312 8.19913 13.5387 5.53677 15.9536 3.32206C18.3684 1.10735 21.2714 0 24.6625 0C28.0536 0 30.9566 1.10735 33.3714 3.32206C35.7863 5.53677 36.9937 8.19913 36.9937 11.3091C36.9937 14.4192 35.7863 17.0815 33.3714 19.2962C30.9566 21.5109 28.0536 22.6183 24.6625 22.6183C21.2714 22.6183 18.3684 21.5109 15.9536 19.2962ZM0 39.582V37.3202C0 35.7181 0.450091 34.246 1.35027 32.904C2.25045 31.5619 3.44453 30.5366 4.9325 29.8279C8.11807 28.3671 11.355 27.272 14.6434 26.5426C17.9317 25.8131 21.2714 25.4475 24.6625 25.4456C28.0536 25.4437 31.3933 25.8094 34.6816 26.5426C37.97 27.2758 41.2069 28.3709 44.3925 29.8279C45.8825 30.5347 47.0776 31.5601 47.9778 32.904C48.878 34.2479 49.327 35.7199 49.325 37.3202V39.582C49.325 41.137 48.7218 42.4687 47.5154 43.577C46.309 44.6853 44.857 45.2385 43.1594 45.2366H6.16562C4.47008 45.2366 3.0191 44.6834 1.81269 43.577C0.606286 42.4706 0.00205521 41.1389 0 39.582Z" fill="#DAD0C5"/>
</svg>
